<svg width="42" height="43" viewBox="0 0 42 43" fill="none" xmlns="http://www.w3.org/2000/svg">
<path d="M36.5744 16.2076L36.5488 16.182C36.5468 16.1806 36.5451 16.1787 36.5441 16.1765L20.5499 0.181885L4.55585 16.1761C4.55401 16.1779 4.55298 16.1804 4.55112 16.1816L4.52473 16.2072C2.07902 18.6666 0.525573 21.873 0.111339 25.3167C-0.302896 28.7604 0.445856 32.2438 2.23856 35.2131C4.03127 38.1825 6.76505 40.4674 10.0053 41.7045C13.2456 42.9415 16.8064 43.06 20.1217 42.0409C20.4007 41.9556 20.6989 41.9556 20.9779 42.0409C24.2929 43.0596 27.8535 42.9411 31.0936 41.7038C34.3337 40.4666 37.0672 38.1819 38.8598 35.2127C40.6524 32.2436 41.4012 28.7604 40.9871 25.3169C40.5731 21.8734 39.0198 18.6671 36.5744 16.2076ZM10.2431 26.7547C10.1653 26.8326 10.1035 26.9251 10.0614 27.0267C10.0193 27.1283 9.99759 27.2374 9.99761 27.3474C10.0261 30.1703 10.8239 32.9319 12.3051 35.3352C12.3387 35.3897 12.3543 35.4535 12.3495 35.5173C12.3447 35.5812 12.3199 35.6419 12.2785 35.6908C12.2371 35.7398 12.1814 35.7742 12.1192 35.7895C12.057 35.8048 11.9915 35.8001 11.9322 35.7759C10.8187 35.3075 9.80704 34.6266 8.95395 33.7714C7.20568 32.0228 6.22283 29.6518 6.22124 27.1791C6.21965 24.7065 7.19946 22.3342 8.9455 20.5835L20.5499 8.98014L32.1537 20.5835C33.9 22.334 34.8801 24.7063 34.8785 27.1791C34.8771 29.6518 33.894 32.0228 32.1456 33.7714C31.2925 34.6266 30.281 35.3075 29.1676 35.7759C29.1081 35.8001 29.0427 35.8048 28.9805 35.7895C28.9184 35.7742 28.8626 35.7396 28.8211 35.6908C28.7798 35.6419 28.7548 35.5812 28.75 35.5171C28.7453 35.4533 28.7608 35.3895 28.7944 35.335C30.276 32.9319 31.0742 30.1703 31.1031 27.3474C31.1031 27.2374 31.0812 27.1283 31.0389 27.0265C30.9966 26.9247 30.9346 26.8324 30.8565 26.7545L25.3679 20.9327C25.3131 20.8871 25.2444 20.8621 25.1731 20.8621C25.1021 20.8621 25.0331 20.8871 24.9786 20.9327C24.9239 20.9782 24.8871 21.0416 24.8743 21.1116C24.8615 21.1816 24.8737 21.2537 24.9088 21.3156C27.0405 25.1732 25.2074 30.7141 22.1505 33.7714L22.1344 33.7875C21.7125 34.2049 21.1429 34.4389 20.5495 34.4387C19.956 34.4385 19.3865 34.2041 18.9649 33.7865L18.9501 33.7714C15.892 30.7141 14.0599 25.1738 16.192 21.3165C16.227 21.2545 16.2392 21.1824 16.2265 21.1124C16.2137 21.0424 16.1768 20.979 16.1222 20.9336C16.0676 20.8879 15.9987 20.8629 15.9276 20.8629C15.8564 20.8629 15.7875 20.8879 15.7329 20.9336L10.2431 26.7547Z" fill="#F53855"/>
</svg>
