<svg width="34" height="33" viewBox="0 0 34 33" fill="none" xmlns="http://www.w3.org/2000/svg">
<path d="M25.084 1H9.66732C5.41012 1 1.95898 4.45114 1.95898 8.70833V24.125C1.95898 28.3822 5.41012 31.8333 9.66732 31.8333H25.084C29.3412 31.8333 32.7923 28.3822 32.7923 24.125V8.70833C32.7923 4.45114 29.3412 1 25.084 1Z" stroke="black" stroke-width="2" stroke-linecap="round" stroke-linejoin="round"/>
<path d="M23.542 15.4454C23.7323 16.7284 23.5131 18.0388 22.9157 19.1901C22.3183 20.3414 21.3731 21.275 20.2145 21.8582C19.0559 22.4413 17.743 22.6443 16.4624 22.4382C15.1818 22.2322 13.9987 21.6276 13.0816 20.7104C12.1644 19.7932 11.5598 18.6102 11.3537 17.3296C11.1477 16.049 11.3506 14.736 11.9338 13.5774C12.5169 12.4188 13.4506 11.4736 14.6019 10.8762C15.7532 10.2788 17.0636 10.0597 18.3466 10.2499C19.6554 10.444 20.867 11.0539 21.8026 11.9894C22.7381 12.925 23.348 14.1366 23.542 15.4454Z" stroke="black" stroke-width="2" stroke-linecap="round" stroke-linejoin="round"/>
<path d="M25.8535 7.9375H25.8685" stroke="black" stroke-width="2" stroke-linecap="round" stroke-linejoin="round"/>
</svg>
