<svg width="33" height="32" viewBox="0 0 33 32" fill="none" xmlns="http://www.w3.org/2000/svg">
<path d="M22.582 10.25C25.0353 10.25 27.3881 11.2246 29.1228 12.9593C30.8575 14.694 31.832 17.0467 31.832 19.5V30.2917H25.6654V19.5C25.6654 18.6822 25.3405 17.898 24.7623 17.3198C24.184 16.7415 23.3998 16.4167 22.582 16.4167C21.7643 16.4167 20.98 16.7415 20.4018 17.3198C19.8235 17.898 19.4987 18.6822 19.4987 19.5V30.2917H13.332V19.5C13.332 17.0467 14.3066 14.694 16.0413 12.9593C17.776 11.2246 20.1288 10.25 22.582 10.25V10.25Z" stroke="black" stroke-width="2" stroke-linecap="round" stroke-linejoin="round"/>
<path d="M7.16667 11.7916H1V30.2916H7.16667V11.7916Z" stroke="black" stroke-width="2" stroke-linecap="round" stroke-linejoin="round"/>
<path d="M4.08333 7.16667C5.78621 7.16667 7.16667 5.78621 7.16667 4.08333C7.16667 2.38046 5.78621 1 4.08333 1C2.38046 1 1 2.38046 1 4.08333C1 5.78621 2.38046 7.16667 4.08333 7.16667Z" stroke="black" stroke-width="2" stroke-linecap="round" stroke-linejoin="round"/>
</svg>
