<svg width="36" height="36" viewBox="0 0 36 36" fill="none" xmlns="http://www.w3.org/2000/svg">
<path d="M32.9997 25.38V29.88C33.0014 30.2977 32.9158 30.7112 32.7484 31.094C32.5811 31.4768 32.3356 31.8203 32.0278 32.1028C31.7199 32.3852 31.3565 32.6002 30.9608 32.734C30.565 32.8679 30.1457 32.9176 29.7297 32.88C25.1139 32.3784 20.6802 30.8012 16.7847 28.275C13.1604 25.972 10.0877 22.8992 7.78466 19.275C5.24962 15.3618 3.67202 10.9065 3.17966 6.26996C3.14217 5.85516 3.19147 5.4371 3.32441 5.0424C3.45734 4.6477 3.67101 4.285 3.9518 3.97739C4.2326 3.66979 4.57436 3.42403 4.95534 3.25575C5.33632 3.08746 5.74817 3.00035 6.16466 2.99996H10.6647C11.3926 2.9928 12.0983 3.25058 12.6503 3.72526C13.2023 4.19994 13.5628 4.85913 13.6647 5.57996C13.8546 7.02006 14.2068 8.43405 14.7147 9.79496C14.9165 10.3318 14.9601 10.9153 14.8405 11.4763C14.7209 12.0372 14.443 12.5521 14.0397 12.96L12.1347 14.865C14.27 18.6203 17.3793 21.7296 21.1347 23.865L23.0397 21.96C23.4475 21.5567 23.9624 21.2787 24.5233 21.1591C25.0843 21.0395 25.6678 21.0831 26.2047 21.285C27.5656 21.7928 28.9796 22.145 30.4197 22.335C31.1483 22.4378 31.8138 22.8048 32.2895 23.3662C32.7652 23.9276 33.0179 24.6443 32.9997 25.38Z" stroke="black" stroke-width="2" stroke-linecap="round" stroke-linejoin="round"/>
</svg>
