<svg width="40" height="39" viewBox="0 0 40 39" fill="none" xmlns="http://www.w3.org/2000/svg">
<path d="M10.8449 32.9727C12.5173 32.9727 13.8748 34.3234 13.8748 35.9874C13.8748 37.6515 12.517 39 10.8449 39C9.17246 39 7.81691 37.6513 7.81691 35.9874C7.81691 34.3236 9.17224 32.9727 10.8449 32.9727ZM33.3493 32.9727C35.0217 32.9727 36.3792 34.3234 36.3792 35.9874C36.3792 37.6515 35.0215 39 33.3493 39C31.6771 39 30.3193 37.6515 30.3193 35.9874C30.3193 34.3234 31.6769 32.9727 33.3493 32.9727ZM1.55314 0.000994837L1.75603 0.0221068L5.91596 0.738454C6.51384 0.841412 6.9826 1.28985 7.11949 1.86357L7.15487 2.08416L7.62432 7.65919H35.8176C38.2637 7.65919 40.1635 9.73002 39.9889 12.116L39.9561 12.4158L38.058 25.466C37.7088 27.8575 35.725 29.6578 33.3324 29.8098L33.0037 29.8202H11.1801C8.6345 29.8202 6.49724 27.9615 6.12925 25.4893L6.0914 25.1634L4.26237 3.48249L1.24441 2.96316C0.496158 2.83431 -0.025992 2.1746 0.000999892 1.43999L0.0222191 1.23812C0.151725 0.493649 0.814785 -0.0258606 1.55314 0.000994837ZM35.8176 10.644H7.87631L9.0809 24.9145C9.1655 25.9235 9.95766 26.715 10.9482 26.8229L11.1801 26.8354H33.0037C33.9699 26.8354 34.8008 26.1836 35.0415 25.2711L35.0891 25.0378L36.9871 11.9884C37.0816 11.3378 36.6254 10.7503 35.9939 10.6569L35.8176 10.644ZM29.7967 15.0137C30.6252 15.0137 31.2967 15.6819 31.2967 16.5061C31.2967 17.2616 30.7324 17.886 30.0003 17.9849L29.7967 17.9985H24.2508C23.4224 17.9985 22.7509 17.3303 22.7509 16.5061C22.7509 15.7505 23.3152 15.1261 24.0473 15.0273L24.2508 15.0137H29.7967Z" fill="#1C1C1C"/>
</svg>
