<svg width="37" height="30" viewBox="0 0 37 30" fill="none" xmlns="http://www.w3.org/2000/svg">
<path d="M35.5417 1.0155C34.0653 2.05686 32.4307 2.85334 30.7008 3.37425C29.7723 2.30666 28.5384 1.54999 27.1658 1.20656C25.7933 0.863125 24.3484 0.949512 23.0265 1.45403C21.7047 1.95856 20.5697 2.85687 19.775 4.02748C18.9803 5.19809 18.5644 6.58452 18.5833 7.99925V9.54092C15.8741 9.61117 13.1895 9.0103 10.7686 7.79182C8.34781 6.57333 6.26591 4.77507 4.70833 2.55717C4.70833 2.55717 -1.45833 16.4322 12.4167 22.5988C9.24165 24.754 5.45937 25.8347 1.625 25.6822C15.5 33.3905 32.4583 25.6822 32.4583 7.953C32.4569 7.52358 32.4156 7.09521 32.335 6.67342C33.9084 5.12172 35.0188 3.1626 35.5417 1.0155V1.0155Z" stroke="black" stroke-width="2" stroke-linecap="round" stroke-linejoin="round"/>
</svg>
